# xmcd
#
# Track frame offsets:
#	150
#	12741
#	26696
#	38785
#	51643
#	64356
#	77827
#	91706
#	102760
#	114967
#	127571
#	141953
#	153991
#	165807
#	177246
#	189238
#	203782
#	216241
#	230498
#	243453
#	254966
#	267459
#	279359
#	293705
#	306062
#	319432
#
# Disc length: 4435
#
# Revision: 4
# Processed by: cddbd v1.5.1PL0 Copyright (c) Steve Scherf et al.
# Submitted via: CDex 1.30Release
# Normalized: r2:DSETVAR1,TDELIM( - ),TSWAP
#
DISCID=7611511a
DTITLE=Various Artist - Jukebox Blues (Disk 2)
DYEAR=1900
DGENRE=Blues
TTITLE0=Memphis Slim and the Houserockers - Rockin' the House
TTITLE1=Louis Jordan - I Know You're Putting Me Down
TTITLE2=Julia Lee - King Size Papa
TTITLE3=Sunnyland Slim - Johnson Machine Gun
TTITLE4=Amos Milburn - Chicken Shack Boogie
TTITLE5=Sonny Boy Williamson - Better Cut That Out
TTITLE6=Lonnie Johnson - Tomorrow Night
TTITLE7=Jazz Gillum w BB Broonzy - Gillum's Windy Blues
TTITLE8=Dan Burley w Tiny Grimes - Living Room Romp
TTITLE9=T-Bone Walker - Hypin' Woman Blues
TTITLE10=John Lee Hooker - Sally Mae
TTITLE11=Brownie McGhee - My Fault
TTITLE12=Muddy Waters - You're Gonna Miss Me
TTITLE13=Crown Prince Waterford - Move Your Hand Baby
TTITLE14=Peetie Wheatstraw - Shack Bully Stomp
TTITLE15=Charles Brown - Driftin' Blues
TTITLE16=Tampa Red - Stop Truckin' and Suzie Q
TTITLE17=Washboard Sam - Back Door
TTITLE18=Big Maceo - Worried Life Blues
TTITLE19=Georgia White - Trouble in Mind
TTITLE20=Big Bill Broonzy - I Feel So Good
TTITLE21=Lowell Fulson - I Want to See My Baby
TTITLE22=St. Louis Jimmy - Goin' Down Slow
TTITLE23=Roy Milton - Big Fat Mama
TTITLE24=Roy Brown - Good Rocking Tonight
TTITLE25=Joe Turner - Sally Zu Zazz
EXTD=ID3G:   0
EXTT0=
EXTT1=
EXTT2=
EXTT3=
EXTT4=
EXTT5=
EXTT6=
EXTT7=
EXTT8=
EXTT9=
EXTT10=
EXTT11=
EXTT12=
EXTT13=
EXTT14=
EXTT15=
EXTT16=
EXTT17=
EXTT18=
EXTT19=
EXTT20=
EXTT21=
EXTT22=
EXTT23=
EXTT24=
EXTT25=
PLAYORDER=
